<svg xmlns="http://www.w3.org/2000/svg" width="18" height="18" viewBox="0 0 22 22" style="margin-left: 25px;"><path fill="rgba(0, 0, 0, 0.12)" fill-rule="nonzero" d="M18.228 0H3.772A3.772 3.772 0 0 0 0 3.772v14.457A3.772 3.772 0 0 0 3.772 22h14.457A3.772 3.772 0 0 0 22 18.228V3.772A3.772 3.772 0 0 0 18.228 0zM7.567 9.093a3.803 3.803 0 0 1 .145-.239c.029-.044.06-.087.09-.13.034-.047.068-.094.104-.14.031-.04.061-.079.094-.117.06-.072.125-.142.19-.21l.1-.097c.048-.046.097-.09.147-.133.033-.029.066-.058.101-.086.077-.062.158-.122.24-.18l.091-.058c.065-.043.132-.083.2-.122.032-.018.064-.037.097-.054.094-.05.19-.097.288-.139l.069-.027a3.815 3.815 0 0 1 .35-.123c.107-.033.216-.062.328-.085.012-.003.025-.004.037-.006a3.967 3.967 0 0 1 .404-.058c.118-.01.237-.018.358-.018a3.93 3.93 0 0 1 .45.028c.105.012.209.027.311.048.013.002.026.003.038.006.111.023.22.052.328.085l.093.03c.087.028.173.06.257.093.023.01.046.017.068.027.098.042.194.09.289.139l.096.054c.069.038.136.08.202.122l.09.058c.082.057.163.117.24.18l.1.085c.05.044.1.089.148.135a3.868 3.868 0 0 1 .29.307c.032.037.062.076.092.114.036.047.072.095.107.144a3.91 3.91 0 0 1 .73 2.274 3.929 3.929 0 0 1-7.858 0c0-.693.181-1.342.496-1.907zm12.076 7.963a2.765 2.765 0 0 1-2.766 2.766H5.123a2.765 2.765 0 0 1-2.766-2.766V9.093h2.654a6.286 6.286 0 1 0 11.978 0h2.654v7.963zm0-12.656c0 .174-.14.314-.315.314H17.6a.314.314 0 0 1-.314-.314V2.672c0-.174.14-.315.314-.315h1.728c.174 0 .315.141.315.315V4.4z"></path></svg>