<svg xmlns="http://www.w3.org/2000/svg" width="18" height="18" viewBox="0 0 22 18" style="margin-left: 25px;"><path fill="rgba(0, 0, 0, 0.12)" fill-rule="nonzero" d="M19.763 5.072C19.763 11.077 15.223 18 6.92 18 4.372 18 2 17.248 0 15.959a9.02 9.02 0 0 0 6.684-1.883 4.521 4.521 0 0 1-4.219-3.155 4.48 4.48 0 0 0 2.038-.077A4.542 4.542 0 0 1 .88 6.386V6.33c.609.34 1.305.544 2.045.567A4.551 4.551 0 0 1 .919 3.114c0-.832.223-1.612.611-2.283a12.782 12.782 0 0 0 9.304 4.746 4.528 4.528 0 0 1-.116-1.036C10.718 2.034 12.738 0 15.23 0a4.5 4.5 0 0 1 3.297 1.433A8.972 8.972 0 0 0 21.393.331a4.56 4.56 0 0 1-1.985 2.513A8.897 8.897 0 0 0 22 2.128a9.102 9.102 0 0 1-2.251 2.357c.01.194.014.39.014.587z"></path></svg>